<svg width="1352" height="245" viewBox="0 0 1352 245" fill="none" xmlns="http://www.w3.org/2000/svg">
<path opacity="0.04" d="M5.21447e-05 244.852V-0.00022037H92.0783C112.08 -0.00022037 129.208 7.12694 143.463 21.3813C157.717 35.4057 164.844 52.5338 164.844 72.7657C164.844 89.0892 158.982 103.114 147.256 114.839C157.832 120.357 166.224 128.174 172.431 138.29C178.869 148.406 182.087 159.901 182.087 172.776C182.087 193.008 174.96 210.136 160.706 224.16C146.452 237.955 128.749 244.852 107.597 244.852H5.21447e-05ZM54.8332 194.502H103.114C110.471 194.502 116.564 192.203 121.392 187.605C126.22 182.777 128.634 176.914 128.634 170.017C128.634 163.12 126.105 157.372 121.047 152.774C116.219 147.946 110.126 145.532 102.769 145.532H54.8332V194.502ZM54.8332 98.9753H85.8708C93.2278 98.9753 99.3204 96.6762 104.148 92.078C108.977 87.4799 111.391 81.7322 111.391 74.8349C111.391 67.9377 108.977 62.075 104.148 57.2469C99.3204 52.4189 93.2278 50.0048 85.8708 50.0048H54.8332V98.9753ZM212.01 244.852V-0.00022037H266.843V244.852H212.01ZM311.535 244.852V-0.00022037H366.368V192.433H467.757V244.852H311.535ZM494.918 244.852V-0.00022037H578.375C612.861 -0.00022037 642.289 11.955 666.659 35.8655C691.03 59.7759 703.215 88.6294 703.215 122.426C703.215 156.222 691.03 185.076 666.659 208.986C642.289 232.897 612.861 244.852 578.375 244.852H494.918ZM549.751 194.502H578.375C598.607 194.502 615.16 187.605 628.035 173.81C641.14 159.786 647.692 142.658 647.692 122.426C647.692 102.194 641.14 85.1808 628.035 71.3863C615.16 57.3619 598.607 50.3497 578.375 50.3497H549.751V194.502ZM696.883 244.852L801.721 -0.00022037H851.382L956.22 244.852H898.973L877.246 193.123H775.857L754.13 244.852H696.883ZM826.552 72.076L795.514 145.532H857.244L826.552 72.076ZM974.842 244.852V-0.00022037H1071.4C1093.93 -0.00022037 1112.21 7.12694 1126.24 21.3813C1140.26 35.6356 1147.27 53.1086 1147.27 73.8003C1147.27 104.608 1131.29 125.645 1099.34 136.91L1185.9 244.852H1120.03L1038.3 143.807H1029.68V244.852H974.842ZM1029.68 97.251H1064.85C1073.13 97.251 1079.8 95.0668 1084.85 90.6986C1090.14 86.3303 1092.79 80.6976 1092.79 73.8003C1092.79 66.4433 1090.14 60.6956 1084.85 56.5572C1079.8 52.4189 1073.13 50.3497 1064.85 50.3497H1029.68V97.251ZM1196.28 244.852V-0.00022037H1351.47V52.4189H1251.11V96.2164H1330.78V148.635H1251.11V192.433H1351.47V244.852H1196.28Z" fill="white"/>
</svg>
