<svg width="133" height="46" viewBox="0 0 133 46" fill="none" xmlns="http://www.w3.org/2000/svg">
<rect width="46" height="46" rx="9" fill="#B9F500"/>
<path d="M37.0032 24.6282C35.4678 20.6491 33.7441 18.3815 28.6617 15.4123L26.0955 16.8939M37.0032 24.6282C36.6754 27.7923 36.2125 29.5646 34.8375 32.7104L35.8366 33.7095H34.145C35.223 26.7378 30.6167 26.9614 29.6393 27.253C28.662 27.5447 28.0428 28.2904 27.612 28.9445C25.9603 31.4527 23.9372 34.0191 23.0073 34.9986C23.0065 34.294 23.0055 33.5382 23.004 32.7104C22.9997 30.3593 22.9993 27.2939 23.0001 24.6282M37.0032 24.6282C33.4476 20.7981 31.4771 18.6244 26.0955 16.8939M37.0032 24.6282H29.9453M26.0955 16.8939L24.5497 17.7863M24.5497 17.7863L23.004 18.6787C23.004 18.6787 23.0011 21.3515 23.0001 24.6282M24.5497 17.7863C27.5622 20.0524 28.7651 21.5401 29.9453 24.6282M29.9453 24.6282H23.0001M23.004 17.6871L27.3204 15.1952L26.2532 11.5626L25.2788 11.0001V13.2542C25.2205 14.7124 24.3948 15.4094 23.0001 15.4285M23.8205 34.9986C27.7784 35.0177 29.6928 34.7402 33.5617 33.7095C34.32 26.7864 30.062 27.6837 29.4203 28.11C28.7786 28.5362 28.6619 28.7112 28.1953 29.3528C27.7287 29.9944 24.7505 34.0191 23.8205 34.9986Z" stroke="black" stroke-width="1.52205"/>
<path d="M8.99738 24.6284C10.5327 20.6492 12.2564 18.3816 17.3387 15.4124L19.905 16.894M8.99738 24.6284C9.32516 27.7925 9.78805 29.5648 11.163 32.7108L10.164 33.7098H11.8555C10.7776 26.7381 15.3838 26.9616 16.3611 27.2533C17.3385 27.5449 17.9576 28.2907 18.3884 28.9448C20.0401 31.453 22.0631 34.0195 22.9931 34.999C22.9938 34.2944 22.9949 33.5385 22.9964 32.7108C23.0006 30.3596 23.0011 27.2942 23.0003 24.6284M8.99738 24.6284C12.5529 20.7983 14.5234 18.6245 19.905 16.894M8.99738 24.6284H16.0552M19.905 16.894L21.4507 17.7864M21.4507 17.7864L22.9964 18.6788C22.9964 18.6788 22.9993 21.3517 23.0003 24.6284M21.4507 17.7864C18.4382 20.0525 17.2354 21.5403 16.0552 24.6284M16.0552 24.6284H23.0003M22.9964 17.6872L18.6801 15.1952L19.7472 11.5627L20.7216 11.0001V13.2542C20.7799 14.7125 21.6056 15.4095 23.0003 15.4285M22.1798 34.999C18.2221 35.0181 16.3077 34.7406 12.4388 33.7098C11.6806 26.7866 15.9385 27.6839 16.5802 28.1102C17.2218 28.5365 17.3385 28.7115 17.8051 29.3531C18.2717 29.9947 21.2499 34.0195 22.1798 34.999Z" stroke="black" stroke-width="1.52205"/>
<path d="M54 32.1906V14.1445H61.7506C63.0121 14.1445 64.0749 14.3422 64.9389 14.7374C65.803 15.1156 66.4597 15.6569 66.909 16.3616C67.3755 17.0491 67.6088 17.8654 67.6088 18.8107C67.6088 19.7216 67.4101 20.4864 67.0126 21.1052C66.6152 21.7239 66.0881 22.1965 65.4314 22.5231C64.792 22.8496 64.0835 23.0473 63.3059 23.116L63.7206 22.8066C64.5674 22.841 65.3105 23.0645 65.9499 23.4769C66.5893 23.8894 67.0904 24.4308 67.4533 25.1011C67.8335 25.7542 68.0236 26.476 68.0236 27.2666C68.0236 28.2463 67.7903 29.1056 67.3237 29.8446C66.8571 30.5837 66.1745 31.1594 65.2759 31.5719C64.3773 31.9844 63.2886 32.1906 62.0098 32.1906H54ZM57.8882 29.0455H61.3617C62.2258 29.0455 62.8911 28.8564 63.3577 28.4783C63.8416 28.083 64.0835 27.5158 64.0835 26.7768C64.0835 26.0378 63.8329 25.462 63.3318 25.0495C62.8479 24.637 62.1739 24.4308 61.3099 24.4308H57.8882V29.0455ZM57.8882 21.5692H61.0766C61.9061 21.5692 62.5368 21.3801 62.9689 21.002C63.4182 20.6239 63.6428 20.0911 63.6428 19.4037C63.6428 18.7162 63.4182 18.1834 62.9689 17.8053C62.5368 17.41 61.8974 17.2123 61.0507 17.2123H57.8882V21.5692Z" fill="white"/>
<path d="M69.2532 32.1906V19.1974H73.1415V32.1906H69.2532ZM71.1974 17.7022C70.5061 17.7022 69.9445 17.5045 69.5125 17.1092C69.0804 16.7139 68.8644 16.2155 68.8644 15.614C68.8644 14.9953 69.0804 14.4882 69.5125 14.0929C69.9445 13.6976 70.5061 13.5 71.1974 13.5C71.9059 13.5 72.4762 13.6976 72.9082 14.0929C73.3575 14.4882 73.5821 14.9953 73.5821 15.614C73.5821 16.2155 73.3575 16.7139 72.9082 17.1092C72.4762 17.5045 71.9059 17.7022 71.1974 17.7022Z" fill="white"/>
<path d="M75.0125 32.1906V13.6289H78.9007V32.1906H75.0125Z" fill="white"/>
<path d="M86.5288 32.5C85.3709 32.5 84.3168 32.2078 83.3663 31.6235C82.4332 31.0391 81.6901 30.2399 81.1371 29.2259C80.6014 28.1947 80.3335 27.026 80.3335 25.7198C80.3335 24.3964 80.61 23.2277 81.163 22.2137C81.716 21.1825 82.4677 20.3747 83.4182 19.7904C84.3859 19.1888 85.4573 18.8881 86.6325 18.8881C87.5311 18.8881 88.3174 19.0513 88.9913 19.3779C89.6653 19.6872 90.2183 20.1427 90.6503 20.7442V13.6289H94.5386V32.1906H91.091L90.6503 30.5149C90.3911 30.8758 90.0714 31.211 89.6912 31.5204C89.3283 31.8125 88.8876 32.0445 88.3692 32.2164C87.8508 32.4055 87.2373 32.5 86.5288 32.5ZM87.5397 29.1228C88.1791 29.1228 88.7408 28.9767 89.2246 28.6845C89.7258 28.3924 90.106 27.9885 90.3652 27.4729C90.6417 26.9573 90.7799 26.3643 90.7799 25.694C90.7799 25.0237 90.6417 24.4308 90.3652 23.9152C90.106 23.3996 89.7258 22.9957 89.2246 22.7035C88.7408 22.4114 88.1791 22.2653 87.5397 22.2653C86.9176 22.2653 86.356 22.4114 85.8548 22.7035C85.3709 22.9957 84.9908 23.3996 84.7143 23.9152C84.4378 24.4308 84.2995 25.0152 84.2995 25.6683C84.2995 26.3385 84.4378 26.9401 84.7143 27.4729C84.9908 27.9885 85.3709 28.3924 85.8548 28.6845C86.356 28.9767 86.9176 29.1228 87.5397 29.1228Z" fill="white"/>
<path d="M100.814 32.5C99.7251 32.5 98.8178 32.3281 98.092 31.9844C97.3835 31.6407 96.8564 31.1766 96.5108 30.5923C96.1825 29.9907 96.0183 29.329 96.0183 28.6072C96.0183 27.8338 96.2084 27.1549 96.5886 26.5706C96.986 25.969 97.5995 25.4964 98.429 25.1526C99.2585 24.7917 100.304 24.6113 101.566 24.6113H104.728C104.728 24.0269 104.65 23.5457 104.495 23.1676C104.356 22.7895 104.123 22.5059 103.795 22.3168C103.466 22.1278 103.017 22.0332 102.447 22.0332C101.842 22.0332 101.332 22.1536 100.917 22.3942C100.503 22.6348 100.244 23.0129 100.14 23.5285H96.4071C96.4935 22.6004 96.796 21.7926 97.3144 21.1052C97.8501 20.4177 98.5586 19.8763 99.44 19.481C100.321 19.0857 101.332 18.8881 102.473 18.8881C103.717 18.8881 104.797 19.0943 105.713 19.5068C106.629 19.9021 107.337 20.4864 107.839 21.2598C108.357 22.0332 108.616 22.9957 108.616 24.1472V32.1906H105.376L104.909 30.3087C104.719 30.6352 104.495 30.936 104.235 31.211C103.976 31.4688 103.674 31.7008 103.328 31.9071C102.983 32.0961 102.602 32.2422 102.188 32.3453C101.773 32.4484 101.315 32.5 100.814 32.5ZM101.773 29.5611C102.188 29.5611 102.551 29.4923 102.862 29.3548C103.173 29.2173 103.441 29.0283 103.665 28.7877C103.89 28.547 104.071 28.272 104.21 27.9627C104.365 27.6361 104.477 27.2838 104.547 26.9057V26.8799H102.032C101.6 26.8799 101.237 26.9401 100.943 27.0604C100.667 27.1635 100.46 27.3182 100.321 27.5244C100.183 27.7307 100.114 27.9713 100.114 28.2463C100.114 28.5384 100.183 28.7877 100.321 28.9939C100.477 29.1829 100.676 29.329 100.917 29.4322C101.177 29.5181 101.462 29.5611 101.773 29.5611Z" fill="white"/>
<path d="M110.292 32.1906V19.1974H113.74L114.103 21.5692C114.448 21.0192 114.854 20.5466 115.321 20.1513C115.788 19.756 116.323 19.4466 116.928 19.2232C117.55 18.9998 118.216 18.8881 118.924 18.8881V22.9871H117.628C117.11 22.9871 116.634 23.0473 116.202 23.1676C115.788 23.2707 115.425 23.4512 115.114 23.709C114.82 23.9668 114.587 24.3191 114.414 24.7659C114.258 25.1956 114.18 25.737 114.18 26.3901V32.1906H110.292Z" fill="white"/>
<path d="M125.949 32.5C124.601 32.5 123.418 32.225 122.398 31.675C121.378 31.1079 120.575 30.3259 119.987 29.329C119.417 28.315 119.132 27.1549 119.132 25.8487C119.132 24.5081 119.417 23.3137 119.987 22.2653C120.558 21.2169 121.352 20.3919 122.372 19.7904C123.392 19.1888 124.575 18.8881 125.923 18.8881C127.237 18.8881 128.386 19.1716 129.371 19.7388C130.356 20.306 131.125 21.0794 131.678 22.059C132.248 23.0215 132.533 24.1386 132.533 25.4104C132.533 25.5823 132.525 25.78 132.507 26.0034C132.507 26.2096 132.49 26.4245 132.456 26.6479H121.905V24.405H128.567C128.533 23.6832 128.265 23.1074 127.764 22.6777C127.28 22.2309 126.675 22.0075 125.949 22.0075C125.396 22.0075 124.895 22.1364 124.446 22.3942C123.996 22.652 123.634 23.0387 123.357 23.5543C123.098 24.0699 122.968 24.723 122.968 25.5136V26.287C122.968 26.8885 123.081 27.4213 123.305 27.8853C123.547 28.3494 123.884 28.7103 124.316 28.9681C124.766 29.2259 125.293 29.3548 125.897 29.3548C126.468 29.3548 126.934 29.2431 127.297 29.0197C127.677 28.7791 127.971 28.4783 128.179 28.1174H132.145C131.903 28.9423 131.488 29.69 130.9 30.3602C130.313 31.0133 129.596 31.5375 128.749 31.9328C127.902 32.3109 126.969 32.5 125.949 32.5Z" fill="white"/>
</svg>
