<svg width="129" height="23" viewBox="0 0 129 23" fill="none" xmlns="http://www.w3.org/2000/svg">
<path d="M1.43191 17.8501V7.9101H4.86191C5.72991 7.9101 6.43924 8.1761 6.98991 8.7081C7.54991 9.2401 7.82991 9.88876 7.82991 10.6541C7.82991 11.4754 7.52191 12.1148 6.90591 12.5721C7.96991 13.0108 8.50191 13.7994 8.50191 14.9381C8.50191 15.7688 8.19857 16.4641 7.59191 17.0241C6.99457 17.5748 6.22924 17.8501 5.29591 17.8501H1.43191ZM3.06991 16.3521H5.25391C5.77657 16.3521 6.18257 16.2214 6.47191 15.9601C6.76124 15.6988 6.90591 15.3534 6.90591 14.9241C6.90591 14.5041 6.76124 14.1634 6.47191 13.9021C6.18257 13.6314 5.77657 13.4961 5.25391 13.4961H3.06991V16.3521ZM3.06991 12.0961H4.77791C5.21657 12.0961 5.56657 11.9701 5.82791 11.7181C6.08924 11.4661 6.21991 11.1441 6.21991 10.7521C6.21991 10.3788 6.08924 10.0614 5.82791 9.8001C5.56657 9.53876 5.21657 9.4081 4.77791 9.4081H3.06991V12.0961ZM11.9869 17.9901C11.1843 17.9901 10.5496 17.7241 10.0829 17.1921C9.61625 16.6508 9.38292 15.9321 9.38292 15.0361V10.8501H10.9229V14.7841C10.9229 15.3441 11.0443 15.7874 11.2869 16.1141C11.5296 16.4314 11.8749 16.5901 12.3229 16.5901C12.8456 16.5901 13.2609 16.3941 13.5689 16.0021C13.8769 15.6008 14.0309 15.0314 14.0309 14.2941V10.8501H15.5709V17.8501H14.0309V16.8981C13.6203 17.6261 12.9389 17.9901 11.9869 17.9901ZM17.853 9.3241C17.573 9.3241 17.3304 9.2261 17.125 9.0301C16.9197 8.82476 16.817 8.57743 16.817 8.2881C16.817 8.0081 16.9197 7.7701 17.125 7.5741C17.3304 7.36876 17.573 7.2661 17.853 7.2661C18.1424 7.2661 18.385 7.36876 18.581 7.5741C18.777 7.7701 18.875 8.0081 18.875 8.2881C18.875 8.57743 18.777 8.82476 18.581 9.0301C18.385 9.2261 18.1424 9.3241 17.853 9.3241ZM17.083 17.8501V10.8501H18.623V17.8501H17.083ZM20.1324 17.8501V7.3501H21.6724V17.8501H20.1324ZM26.2198 17.9201C25.5104 17.9201 24.9318 17.7241 24.4838 17.3321C24.0451 16.9308 23.8258 16.3521 23.8258 15.5961V12.2221H22.3698V10.8501H23.8258V8.9041H25.3658V10.8501H27.3678V12.2221H25.3658V15.3441C25.3658 15.7734 25.4591 16.0814 25.6458 16.2681C25.8324 16.4454 26.1311 16.5341 26.5418 16.5341C26.8778 16.5341 27.1531 16.4874 27.3678 16.3941V17.7661C27.0318 17.8688 26.6491 17.9201 26.2198 17.9201ZM34.7972 17.9901C34.3212 17.9901 33.8779 17.8874 33.4672 17.6821C33.0659 17.4674 32.7579 17.2108 32.5432 16.9121V17.8501H31.0032V7.3501H32.5432V11.7881C32.7579 11.4894 33.0659 11.2374 33.4672 11.0321C33.8779 10.8174 34.3212 10.7101 34.7972 10.7101C35.7492 10.7101 36.5472 11.0648 37.1912 11.7741C37.8445 12.4834 38.1712 13.3421 38.1712 14.3501C38.1712 15.3581 37.8445 16.2168 37.1912 16.9261C36.5472 17.6354 35.7492 17.9901 34.7972 17.9901ZM34.5172 16.5901C35.1239 16.5901 35.6232 16.3754 36.0152 15.9461C36.4072 15.5168 36.6032 14.9848 36.6032 14.3501C36.6032 13.7154 36.4072 13.1834 36.0152 12.7541C35.6232 12.3248 35.1239 12.1101 34.5172 12.1101C33.9012 12.1101 33.3972 12.3248 33.0052 12.7541C32.6132 13.1834 32.4172 13.7154 32.4172 14.3501C32.4172 14.9848 32.6132 15.5168 33.0052 15.9461C33.3972 16.3754 33.9012 16.5901 34.5172 16.5901ZM41.2555 20.7761H39.5615L41.0595 17.4721L38.0495 10.8501H39.7435L41.8855 15.8061L44.0415 10.8501H45.7495L41.2555 20.7761Z" fill="white"/>
<rect x="53.9926" y="0.104004" width="22.85" height="22.85" rx="4.47064" fill="#B9F500"/>
<path d="M72.3757 12.3337C71.6132 10.3567 70.7571 9.22999 68.2331 7.75475L66.9587 8.49089M72.3757 12.3337C72.2129 13.9058 71.983 14.7864 71.3001 16.3494L71.7963 16.8458H70.9562C71.4916 13.3819 69.204 13.493 68.7186 13.6379C68.2332 13.7828 67.9257 14.1533 67.7118 14.4783C66.8915 15.7245 65.8868 16.9997 65.425 17.4863C65.4246 17.1362 65.4241 16.7607 65.4234 16.3494C65.4212 15.1812 65.421 13.6582 65.4214 12.3337M72.3757 12.3337C70.6099 10.4307 69.6313 9.35067 66.9587 8.49089M72.3757 12.3337H68.8705M66.9587 8.49089L66.191 8.93428M66.191 8.93428L65.4234 9.37768C65.4234 9.37768 65.4219 10.7057 65.4214 12.3337M66.191 8.93428C67.6871 10.0602 68.2844 10.7994 68.8705 12.3337M68.8705 12.3337H65.4214M65.4234 8.88501L67.567 7.64685L67.037 5.84202L66.5531 5.5625V6.68247C66.5241 7.40699 66.1141 7.75329 65.4214 7.76277M65.8289 17.4863C67.7944 17.4958 68.7452 17.3579 70.6665 16.8458C71.0431 13.406 68.9285 13.8519 68.6098 14.0637C68.2912 14.2755 68.2332 14.3624 68.0015 14.6812C67.7698 15 66.2907 16.9997 65.8289 17.4863Z" stroke="black" stroke-width="0.756061"/>
<path d="M58.4593 12.3386C59.2227 10.3601 60.0797 9.23261 62.6066 7.75632L63.8826 8.49298M58.4593 12.3386C58.6223 13.9118 58.8524 14.793 59.5361 16.3572L59.0393 16.8539H59.8804C59.3444 13.3875 61.6346 13.4986 62.1206 13.6437C62.6065 13.7887 62.9144 14.1595 63.1285 14.4847C63.9498 15.7318 64.9556 17.0078 65.418 17.4949C65.4184 17.1445 65.4189 16.7687 65.4197 16.3572C65.4218 15.1881 65.422 13.664 65.4216 12.3386M58.4593 12.3386C60.2271 10.4342 61.2068 9.35339 63.8826 8.49298M58.4593 12.3386H61.9685M63.8826 8.49298L64.6511 8.9367M64.6511 8.9367L65.4197 9.38041C65.4197 9.38041 65.4211 10.7094 65.4216 12.3386M64.6511 8.9367C63.1533 10.0634 62.5552 10.8031 61.9685 12.3386M61.9685 12.3386H65.4216M65.4197 8.88739L63.2736 7.64834L63.8041 5.84222L64.2886 5.5625V6.68327C64.3176 7.40831 64.7281 7.75486 65.4216 7.76435M65.0137 17.4949C63.0458 17.5044 62.094 17.3664 60.1704 16.8539C59.7934 13.4116 61.9104 13.8578 62.2295 14.0697C62.5485 14.2817 62.6065 14.3687 62.8385 14.6877C63.0705 15.0067 64.5513 17.0078 65.0137 17.4949Z" stroke="black" stroke-width="0.756771"/>
<path d="M80.8164 17.8327V8.86849H84.6664C85.293 8.86849 85.821 8.96667 86.2502 9.16303C86.6794 9.35085 87.0056 9.61978 87.2288 9.96981C87.4605 10.3113 87.5764 10.7168 87.5764 11.1864C87.5764 11.6389 87.4777 12.0188 87.2803 12.3261C87.0828 12.6335 86.821 12.8682 86.4948 13.0304C86.1772 13.1926 85.8253 13.2908 85.439 13.325L85.645 13.1713C86.0656 13.1884 86.4347 13.2994 86.7524 13.5043C87.07 13.7092 87.3189 13.9781 87.4992 14.311C87.688 14.6355 87.7825 14.994 87.7825 15.3867C87.7825 15.8734 87.6666 16.3002 87.4348 16.6673C87.203 17.0345 86.864 17.3205 86.4176 17.5253C85.9712 17.7302 85.4304 17.8327 84.7952 17.8327H80.8164ZM82.7478 16.2704H84.4733C84.9025 16.2704 85.233 16.1764 85.4647 15.9886C85.7051 15.7923 85.8253 15.5105 85.8253 15.1434C85.8253 14.7763 85.7008 14.4903 85.4519 14.2854C85.2115 14.0805 84.8767 13.9781 84.4475 13.9781H82.7478V16.2704ZM82.7478 12.5566H84.3316C84.7437 12.5566 85.057 12.4627 85.2716 12.2749C85.4948 12.0871 85.6064 11.8224 85.6064 11.4809C85.6064 11.1394 85.4948 10.8748 85.2716 10.6869C85.057 10.4906 84.7394 10.3924 84.3187 10.3924H82.7478V12.5566Z" fill="white"/>
<path d="M88.3933 17.8327V11.3785H90.3247V17.8327H88.3933ZM89.359 10.6357C89.0156 10.6357 88.7366 10.5375 88.522 10.3412C88.3074 10.1448 88.2001 9.89724 88.2001 9.59843C88.2001 9.29109 88.3074 9.03924 88.522 8.84288C88.7366 8.64652 89.0156 8.54834 89.359 8.54834C89.7109 8.54834 89.9942 8.64652 90.2088 8.84288C90.432 9.03924 90.5436 9.29109 90.5436 9.59843C90.5436 9.89724 90.432 10.1448 90.2088 10.3412C89.9942 10.5375 89.7109 10.6357 89.359 10.6357Z" fill="white"/>
<path d="M91.2541 17.8327V8.61237H93.1855V17.8327H91.2541Z" fill="white"/>
<path d="M96.9747 17.9864C96.3995 17.9864 95.8759 17.8412 95.4038 17.551C94.9402 17.2607 94.5711 16.8637 94.2964 16.36C94.0303 15.8478 93.8973 15.2672 93.8973 14.6184C93.8973 13.961 94.0346 13.3805 94.3093 12.8768C94.584 12.3645 94.9574 11.9633 95.4295 11.673C95.9103 11.3742 96.4425 11.2248 97.0262 11.2248C97.4726 11.2248 97.8631 11.3059 98.1979 11.4681C98.5327 11.6218 98.8074 11.848 99.022 12.1468V8.61237H100.953V17.8327H99.2409L99.022 17.0003C98.8932 17.1796 98.7344 17.3461 98.5456 17.4997C98.3653 17.6449 98.1464 17.7601 97.8889 17.8455C97.6314 17.9394 97.3266 17.9864 96.9747 17.9864ZM97.4769 16.3088C97.7945 16.3088 98.0735 16.2362 98.3138 16.0911C98.5628 15.9459 98.7516 15.7453 98.8804 15.4892C99.0177 15.2331 99.0864 14.9385 99.0864 14.6056C99.0864 14.2726 99.0177 13.9781 98.8804 13.722C98.7516 13.4658 98.5628 13.2652 98.3138 13.1201C98.0735 12.9749 97.7945 12.9024 97.4769 12.9024C97.1678 12.9024 96.8888 12.9749 96.6399 13.1201C96.3995 13.2652 96.2107 13.4658 96.0733 13.722C95.936 13.9781 95.8673 14.2684 95.8673 14.5928C95.8673 14.9257 95.936 15.2245 96.0733 15.4892C96.2107 15.7453 96.3995 15.9459 96.6399 16.0911C96.8888 16.2362 97.1678 16.3088 97.4769 16.3088Z" fill="white"/>
<path d="M104.071 17.9864C103.53 17.9864 103.079 17.901 102.719 17.7302C102.367 17.5595 102.105 17.329 101.933 17.0387C101.77 16.7399 101.688 16.4112 101.688 16.0527C101.688 15.6685 101.783 15.3313 101.972 15.041C102.169 14.7422 102.474 14.5074 102.886 14.3367C103.298 14.1574 103.817 14.0677 104.444 14.0677H106.015C106.015 13.7775 105.976 13.5384 105.899 13.3506C105.83 13.1628 105.714 13.0219 105.551 12.928C105.388 12.8341 105.165 12.7871 104.882 12.7871C104.581 12.7871 104.328 12.8469 104.122 12.9664C103.916 13.0859 103.787 13.2738 103.736 13.5299H101.882C101.925 13.0689 102.075 12.6676 102.332 12.3261C102.598 11.9846 102.95 11.7157 103.388 11.5193C103.826 11.323 104.328 11.2248 104.895 11.2248C105.513 11.2248 106.049 11.3272 106.504 11.5321C106.959 11.7285 107.311 12.0188 107.56 12.4029C107.818 12.7871 107.946 13.2652 107.946 13.8372V17.8327H106.337L106.105 16.8979C106.011 17.0601 105.899 17.2095 105.77 17.3461C105.642 17.4741 105.491 17.5894 105.32 17.6918C105.148 17.7857 104.959 17.8583 104.753 17.9095C104.547 17.9608 104.32 17.9864 104.071 17.9864ZM104.547 16.5265C104.753 16.5265 104.933 16.4923 105.088 16.424C105.242 16.3557 105.375 16.2618 105.487 16.1423C105.599 16.0228 105.689 15.8862 105.757 15.7325C105.835 15.5703 105.89 15.3953 105.925 15.2075V15.1947H104.676C104.461 15.1947 104.281 15.2245 104.135 15.2843C103.998 15.3355 103.895 15.4124 103.826 15.5148C103.757 15.6173 103.723 15.7368 103.723 15.8734C103.723 16.0185 103.757 16.1423 103.826 16.2447C103.903 16.3387 104.002 16.4112 104.122 16.4624C104.251 16.5051 104.393 16.5265 104.547 16.5265Z" fill="white"/>
<path d="M108.779 17.8327V11.3785H110.491L110.672 12.5566C110.843 12.2834 111.045 12.0486 111.277 11.8523C111.509 11.6559 111.775 11.5023 112.075 11.3913C112.384 11.2803 112.715 11.2248 113.067 11.2248V13.2609H112.423C112.165 13.2609 111.929 13.2908 111.715 13.3506C111.509 13.4018 111.328 13.4915 111.174 13.6195C111.028 13.7476 110.912 13.9226 110.826 14.1446C110.749 14.358 110.71 14.6269 110.71 14.9513V17.8327H108.779Z" fill="white"/>
<path d="M116.556 17.9864C115.887 17.9864 115.299 17.8498 114.792 17.5766C114.286 17.2948 113.887 16.9064 113.595 16.4112C113.312 15.9075 113.17 15.3313 113.17 14.6824C113.17 14.0165 113.312 13.4232 113.595 12.9024C113.878 12.3816 114.273 11.9718 114.779 11.673C115.286 11.3742 115.874 11.2248 116.543 11.2248C117.196 11.2248 117.767 11.3657 118.256 11.6474C118.745 11.9291 119.127 12.3133 119.402 12.7999C119.685 13.278 119.827 13.833 119.827 14.4647C119.827 14.5501 119.823 14.6483 119.814 14.7593C119.814 14.8617 119.805 14.9684 119.788 15.0794H114.548V13.9653H117.857C117.84 13.6067 117.707 13.3207 117.458 13.1073C117.217 12.8853 116.917 12.7743 116.556 12.7743C116.282 12.7743 116.033 12.8384 115.81 12.9664C115.586 13.0945 115.406 13.2866 115.269 13.5427C115.14 13.7988 115.076 14.1232 115.076 14.5159V14.9001C115.076 15.1989 115.131 15.4636 115.243 15.6941C115.363 15.9246 115.531 16.1039 115.745 16.2319C115.968 16.36 116.23 16.424 116.531 16.424C116.814 16.424 117.046 16.3685 117.226 16.2576C117.415 16.138 117.561 15.9886 117.664 15.8093H119.634C119.514 16.2191 119.308 16.5905 119.016 16.9235C118.724 17.2479 118.368 17.5083 117.947 17.7046C117.526 17.8925 117.063 17.9864 116.556 17.9864Z" fill="white"/>
</svg>
