<svg width="183" height="137" viewBox="0 0 183 137" fill="none" xmlns="http://www.w3.org/2000/svg">
<g clip-path="url(#clip0_1042_5922)">
<path d="M182.874 48.3898C182.768 43.4695 182.596 38.572 182.351 33.6963C182.017 26.9253 181.557 20.2093 180.957 13.5773L177.817 9.51799L177.672 9.48376C149.996 2.86629 117.03 0 86.292 0C52.0117 0.00103738 20.5107 3.56341 2.18832 9.48687L2.05771 9.52941L2.04527 9.66634C1.0387 20.8462 0.405321 32.2699 0.144091 43.7766L0.138908 44.0266C0.0466482 48.0755 0 52.1358 0 56.2013C0 78.4397 1.38079 100.809 4.13511 122.24L4.15273 122.379L7.67415 126.104V126.105C49.7509 137.08 126.026 143.801 178.868 126.105C179.596 120.435 180.229 114.697 180.757 108.916C182.19 93.5056 182.935 77.7664 182.996 62.0729C183.012 57.5084 182.974 52.9439 182.874 48.3908V48.3898Z" fill="#1C1D19"/>
<path d="M179.337 44.6764C149.077 39.6192 118.396 37.0869 87.7153 37.0869C83.8818 37.0869 80.0484 37.1263 76.216 37.2062C56.0546 37.6222 35.9171 39.1316 15.9216 41.7375C10.7903 42.4066 5.66727 43.1473 0.556693 43.9606C0.463396 48.0324 0.416748 52.1145 0.416748 56.2017C0.416748 78.3748 1.79028 100.677 4.53009 122.048C27.9143 128.131 61.8338 132.901 96.4053 132.901C123.975 132.901 151.96 129.867 175.346 122.058C176.061 116.471 176.684 110.82 177.213 105.124C178.649 89.6553 179.398 73.8559 179.456 58.1064C179.458 57.4528 179.459 56.8003 179.459 56.1468C179.459 52.3178 179.417 48.4929 179.337 44.6775V44.6764ZM17.9409 81.7515L18.056 81.6166C20.9637 78.2088 24.2716 74.5168 27.7848 70.777C36.2291 61.7787 45.8324 52.4921 53.7502 46.1485L53.829 46.0852L53.9275 46.108C55.6348 46.5064 57.7557 47.6371 59.6341 49.3695C61.5114 51.103 63.1441 53.4413 63.8376 56.2578L63.8656 56.3698H63.8646L64.1911 58.5307C57.5536 65.3307 48.4541 74.5271 40.102 83.0005C48.3473 91.3545 57.2592 100.359 63.7847 107.054L63.8656 107.137L63.8376 107.249C63.7215 107.721 63.5785 108.18 63.4126 108.625C63.6759 108.895 63.9351 109.16 64.1911 109.423C63.6904 111.459 62.6859 113.246 61.4503 114.73C59.3314 117.276 56.5346 118.929 54.4354 119.414C46.5301 113.08 36.9309 103.797 28.4917 94.8049C24.9807 91.0672 21.6749 87.3772 18.7702 83.9735L18.4292 83.0606L17.9409 81.7504V81.7494V81.7515ZM70.4129 118.653C70.0833 118.396 69.763 118.125 69.453 117.838L68.6559 115.676H68.6579L68.6994 115.549C76.7944 90.8338 86.8228 66.7519 98.661 43.5965L98.7067 43.5062L98.8051 43.4865C99.8252 43.2822 100.868 43.1753 101.899 43.1753C103.907 43.1753 105.876 43.5778 107.557 44.4492C109.214 45.3071 110.592 46.6267 111.433 48.4546C111.446 48.4826 111.459 48.5095 111.472 48.5376L111.509 48.6216L111.838 50.8468C101.863 74.0406 91.4928 98.5716 82.9603 122.334C78.4592 122.457 73.9219 121.392 70.4119 118.653H70.4129ZM117.121 110.52C116.999 110.17 116.892 109.812 116.801 109.445C116.486 108.751 116.228 108.019 116.038 107.252L116.01 107.14L116.091 107.057C122.668 100.309 131.668 91.2155 139.968 82.8065C140.089 82.6841 140.209 82.5617 140.329 82.4393C132.131 74.1236 123.286 65.1824 116.795 58.5327L116.734 58.3637L116.009 56.3729H116.01L116.038 56.2609C116.73 53.4454 118.364 51.1061 120.242 49.3726C122.121 47.6392 124.241 46.5084 125.949 46.1111L126.048 46.0883L126.126 46.1516C134.044 52.4952 143.648 61.7829 152.092 70.7801C155.605 74.5199 158.913 78.2119 161.821 81.6197L161.936 81.7546L162.219 83.9787C162.201 83.9995 162.182 84.0213 162.165 84.042C159.273 87.428 155.987 91.0962 152.497 94.8101C144.059 103.802 134.459 113.086 126.554 119.419C123.456 118.704 118.837 115.443 117.123 110.522L117.121 110.52Z" fill="#C5F72B"/>
<path d="M179.261 41.5223C179.002 31.9006 178.481 22.3473 177.699 12.9527C177.613 11.9174 177.522 10.8842 177.43 9.85303C149.829 3.27291 116.95 0.416992 86.292 0.416992C52.1258 0.416992 20.7097 3.96588 2.44746 9.84162C2.15409 13.1104 1.89286 16.401 1.66377 19.7082C1.57773 20.9458 1.49583 22.1854 1.41912 23.4272C1.37559 24.1357 1.33308 24.8453 1.29162 25.5559C1.27089 25.9107 1.25119 26.2665 1.23149 26.6213C1.1921 27.3319 1.15375 28.0436 1.11747 28.7562C1.08118 29.4689 1.04594 30.1816 1.01173 30.8943C0.990997 31.3352 0.970265 31.7771 0.950569 32.218C0.871785 33.9836 0.801294 35.7534 0.740133 37.5252C0.694522 38.8541 0.653057 40.1851 0.617811 41.5161C0.599152 42.1893 0.582566 42.8626 0.567017 43.5358C29.3749 38.9558 58.5446 36.6694 87.7152 36.6694C118.393 36.6694 149.071 39.1996 179.327 44.2516C179.308 43.3419 179.286 42.431 179.261 41.5223ZM21.169 32.8083C18.6437 32.8083 16.3455 31.8331 14.6309 30.2376C12.7443 28.4824 11.5636 25.9771 11.5636 23.1948C11.5636 20.0837 13.0408 17.318 15.3307 15.5607C16.9488 14.319 18.9734 13.5814 21.169 13.5814C21.6012 13.5814 22.0273 13.6104 22.445 13.6654C25.4108 14.0596 27.9485 15.8066 29.4195 18.2673C30.2809 19.7082 30.7754 21.3929 30.7754 23.1938C30.7754 28.5031 26.4744 32.8062 21.169 32.8072V32.8083ZM49.8421 29.7355C47.8787 29.7355 46.0522 29.1463 44.5314 28.1338C41.943 26.4118 40.2367 23.4666 40.2367 20.1231C40.2367 14.8138 44.5366 10.5107 49.8421 10.5107C52.8452 10.5107 55.5269 11.8905 57.2882 14.0503C58.6379 15.706 59.4475 17.8201 59.4475 20.1231C59.4475 25.4325 55.1475 29.7355 49.8421 29.7355ZM78.5162 29.2065C76.9696 29.2065 75.509 28.8403 74.2153 28.1909C71.0691 26.612 68.9108 23.3546 68.9108 19.593C68.9108 14.2837 73.2118 9.98063 78.5173 9.98063C81.1835 9.98063 83.5947 11.0678 85.3352 12.822C87.058 14.5596 88.1227 16.9519 88.1227 19.593C88.1227 24.9024 83.8217 29.2054 78.5173 29.2065H78.5162Z" fill="#E2FB96"/>
<path d="M63.4053 56.2449C62.7211 53.5758 61.1568 51.3412 59.3521 49.6762C57.5608 48.0216 55.5311 46.9324 53.9305 46.5371C46.0532 52.8589 36.4934 62.1051 28.0884 71.0619C24.6261 74.7477 21.3638 78.3869 18.4893 81.7511C21.3638 85.1143 24.6261 88.7545 28.0884 92.4403C29.916 94.3875 31.7985 96.3492 33.7059 98.2911C40.5715 105.28 47.7657 112.018 53.9305 116.965C55.53 116.573 57.5608 115.484 59.351 113.829C61.1558 112.164 62.7201 109.93 63.4043 107.262C61.3134 105.118 58.981 102.738 56.5045 100.222C50.831 94.4528 44.407 87.9598 38.4319 81.9036L38.2878 81.7573L38.4319 81.6111C47.009 72.9074 56.5169 63.3002 63.4043 56.246L63.4053 56.2449Z" fill="#2E2E2E"/>
<path d="M107.367 44.819C105.757 43.9839 103.853 43.5918 101.901 43.5918C100.93 43.5918 99.9486 43.6893 98.9866 43.875C89.8788 61.6973 81.8449 80.0693 74.9399 98.8574C72.9082 104.387 70.9728 109.952 69.1379 115.55C72.5277 118.627 77.1013 119.91 81.7133 119.91C81.8947 119.91 82.0761 119.908 82.2585 119.904C85.1839 111.762 88.3238 103.532 91.5903 95.296C97.8297 79.5589 104.527 63.8063 111.055 48.6252C110.253 46.8886 108.953 45.6417 107.368 44.819H107.367Z" fill="#2E2E2E"/>
<path d="M151.787 71.0619C149.711 68.8492 147.564 66.6188 145.389 64.4185C138.761 57.7149 131.877 51.2966 125.945 46.5371C124.346 46.9324 122.315 48.0206 120.524 49.6762C118.719 51.3412 117.155 53.5758 116.47 56.2449C121.409 61.3032 127.694 67.6738 134.018 74.0828C136.515 76.6119 139.016 79.1473 141.443 81.61L141.587 81.7563L141.443 81.9026C132.859 90.6021 123.351 100.203 116.47 107.262C117.155 109.93 118.719 112.163 120.524 113.829C122.315 115.484 124.345 116.573 125.945 116.965C133.822 110.644 143.382 101.397 151.787 92.4403C155.25 88.7545 158.512 85.1153 161.386 81.7511C158.512 78.3869 155.25 74.7477 151.787 71.0619Z" fill="#1C1C1C"/>
<path d="M27.6665 16.6921C26.0027 15.0281 23.7066 13.999 21.169 13.999C18.6313 13.999 16.3352 15.0281 14.6714 16.6921C14.151 17.2128 13.6938 17.7948 13.3092 18.4276C12.4654 19.8177 11.9792 21.4495 11.9792 23.1954C11.9792 25.736 13.0076 28.0327 14.6703 29.6978C16.3341 31.3628 18.6303 32.3908 21.1679 32.3908C23.7066 32.3908 26.0017 31.3617 27.6655 29.6978C28.5902 28.7724 29.3179 27.652 29.7823 26.403C30.1534 25.404 30.3566 24.3231 30.3566 23.1944C30.3566 20.6538 29.3282 18.3571 27.6655 16.6921H27.6665Z" fill="#7FC5A6"/>
<path d="M56.3407 13.6208C54.6769 11.9568 52.3808 10.9277 49.8431 10.9277C47.3044 10.9277 45.0093 11.9568 43.3455 13.6208C42.8863 14.0803 42.4747 14.5887 42.1212 15.1374C41.1935 16.5742 40.6544 18.2849 40.6544 20.1231C40.6544 22.6637 41.6828 24.9604 43.3455 26.6254C45.0093 28.2894 47.3054 29.3185 49.8431 29.3185C52.3818 29.3185 54.6769 28.2894 56.3407 26.6254C57.1368 25.8287 57.7878 24.8857 58.2501 23.8411C58.7529 22.7041 59.0328 21.4468 59.0328 20.1221C59.0328 17.5815 58.0045 15.2847 56.3417 13.6197L56.3407 13.6208Z" fill="#F08065"/>
<path d="M87.7049 19.5616C87.6966 17.0346 86.6693 14.7492 85.0138 13.0915C83.35 11.4275 81.0539 10.3984 78.5162 10.3984C75.9775 10.3984 73.6814 11.4275 72.0187 13.0915C71.0111 14.1009 70.2357 15.3416 69.7816 16.7286C69.4862 17.63 69.3265 18.5927 69.3265 19.5938C69.3265 22.1344 70.3549 24.4311 72.0176 26.0961C73.6814 27.7611 75.9775 28.7892 78.5152 28.7892C81.0529 28.7892 83.349 27.7601 85.0128 26.0961C86.6755 24.4311 87.7039 22.1333 87.7039 19.5938C87.7039 19.5834 87.7039 19.572 87.7039 19.5616H87.7049Z" fill="#F7CE57"/>
<path d="M179.459 56.1457C179.459 52.3167 179.417 48.4919 179.337 44.6764C149.077 39.6192 118.396 37.0869 87.7153 37.0869C83.8818 37.0869 80.0484 37.1263 76.2159 37.2062C111.412 38.9687 146.345 46.0323 179.456 58.1053C179.458 57.4518 179.459 56.7993 179.459 56.1457Z" fill="#82AC00"/>
<path d="M96.4053 132.9C123.975 132.9 151.96 129.867 175.346 122.058C176.061 116.47 176.684 110.82 177.213 105.123C166.615 110.086 155.521 114 144.197 116.916C138.708 118.328 133.167 119.509 127.588 120.475C135.469 114.029 144.821 104.95 153.086 96.1428C156.679 92.3179 160.062 88.5419 163.036 85.0573C162.748 84.7212 162.457 84.3809 162.163 84.0396C159.271 87.4256 155.984 91.0938 152.495 94.8077C144.057 103.8 134.457 113.083 126.552 119.416C123.454 118.702 118.835 115.44 117.121 110.52C116.931 110.716 116.741 110.91 116.554 111.102C117.769 116.038 121.873 119.545 125.158 120.881C111.56 123.079 97.753 124.017 83.9544 123.927C92.6455 99.7321 103.203 74.7581 113.358 51.1442C112.88 50.0788 112.224 49.1866 111.434 48.4553C111.447 48.4833 111.46 48.5103 111.473 48.5383L111.51 48.6223L111.839 50.8475C101.864 74.0413 91.4938 98.5723 82.9613 122.335C78.4603 122.458 73.923 121.393 70.4129 118.654C70.329 118.909 70.245 119.165 70.161 119.421C73.0678 122.107 76.8276 123.49 80.7471 123.889C76.3197 123.809 71.8943 123.624 67.4783 123.344C57.2011 122.694 46.84 121.499 37.1351 118.046C27.424 114.6 18.3297 108.712 12.5411 100.183C5.73568 90.1654 4.07501 77.2178 6.38047 65.3262C8.00175 56.9442 11.4527 49.0435 15.9216 41.7393C10.7903 42.4084 5.66727 43.1491 0.556693 43.9624C0.463396 48.0341 0.416748 52.1162 0.416748 56.2035C0.416748 78.3765 1.79028 100.679 4.53009 122.049C27.9143 128.133 61.8338 132.902 96.4053 132.902V132.9Z" fill="#82AC00"/>
<path d="M179.327 44.2512C179.308 43.3414 179.286 42.4306 179.261 41.5218C120.287 31.4343 59.5915 31.4074 0.617811 41.5156C0.599152 42.1889 0.582566 42.8621 0.567017 43.5354C29.3749 38.9554 58.5446 36.669 87.7152 36.669C118.393 36.669 149.071 39.1991 179.327 44.2512Z" fill="#82AC00"/>
<path d="M21.169 13.5824C21.6013 13.5824 22.0273 13.6115 22.4451 13.6665C73.0999 0.8029 126.953 0.429441 177.699 12.9527C177.613 11.9174 177.522 10.8842 177.43 9.85303C149.829 3.27291 116.95 0.416992 86.292 0.416992C52.1258 0.416992 20.7098 3.96588 2.44751 9.84162C2.15414 13.1104 1.89291 16.401 1.66382 19.7082C6.18766 18.2226 10.7447 16.8408 15.3307 15.5618C16.9489 14.32 18.9734 13.5824 21.169 13.5824Z" fill="#82AC00"/>
<path d="M116.796 58.5314L116.735 58.3623C116.668 58.5781 116.608 58.797 116.554 59.019C123.021 65.6437 131.769 74.4895 139.969 82.8051C140.09 82.6827 140.21 82.5603 140.33 82.4379C132.132 74.1222 123.287 65.181 116.796 58.5314Z" fill="#82AC00"/>
<path d="M26.7481 95.9478C35.348 105.113 45.1317 114.573 53.1894 121.029C55.7218 120.445 59.2516 118.19 61.4503 114.733C59.3314 117.278 56.5346 118.932 54.4354 119.417C46.5301 113.083 36.9309 103.8 28.4917 94.8077C24.9807 91.07 21.6749 87.38 18.7702 83.9764L18.4292 83.0635C17.8881 83.6869 17.3573 84.3021 16.839 84.909C19.8006 88.379 23.1686 92.1395 26.7471 95.9488L26.7481 95.9478Z" fill="#82AC00"/>
<path d="M21.169 32.8085C18.6438 32.8085 16.3456 31.8334 14.631 30.2379C16.357 32.6757 19.1984 34.2681 22.4119 34.2681C27.6749 34.2681 31.9416 29.9983 31.9416 24.7315C31.9416 22.2376 30.9848 19.9678 29.4195 18.2686C30.2809 19.7095 30.7754 21.3942 30.7754 23.1951C30.7754 28.5044 26.4745 32.8075 21.169 32.8085Z" fill="#82AC00"/>
<path d="M57.2882 14.0489C58.6379 15.7046 59.4475 17.8187 59.4475 20.1217C59.4475 25.4311 55.1476 29.7341 49.8421 29.7341C47.8788 29.7341 46.0522 29.1449 44.5315 28.1324C46.2699 29.9893 48.7433 31.1502 51.4873 31.1502C56.7502 31.1502 61.017 26.8803 61.017 21.6135C61.017 18.5314 59.5553 15.7907 57.2893 14.0479L57.2882 14.0489Z" fill="#82AC00"/>
<path d="M85.3342 12.8232C87.0571 14.5609 88.1217 16.9531 88.1217 19.5942C88.1217 24.9036 83.8207 29.2066 78.5163 29.2077C76.9697 29.2077 75.509 28.8415 74.2153 28.1921C75.9009 29.6994 78.1255 30.6164 80.5636 30.6164C85.8266 30.6164 90.0934 26.3466 90.0934 21.0798C90.0934 17.5527 88.1797 14.4727 85.3352 12.8232H85.3342Z" fill="#82AC00"/>
<path d="M33.706 98.291C40.5716 105.28 47.7658 112.018 53.9306 116.965C55.5301 116.573 57.5609 115.484 59.3511 113.829C61.1559 112.164 62.7202 109.929 63.4043 107.262C61.3135 105.118 58.981 102.738 56.5045 100.222C48.8687 100.253 41.2257 99.6116 33.705 98.2921L33.706 98.291Z" fill="#1C1D19"/>
<path d="M69.1368 115.55C72.5266 118.627 77.1002 119.91 81.7122 119.91C81.8936 119.91 82.075 119.908 82.2574 119.904C85.1828 111.762 88.3227 103.532 91.5892 95.2959C86.1261 96.8499 80.5594 98.0367 74.9399 98.8572C72.9081 104.386 70.9727 109.952 69.1379 115.55H69.1368Z" fill="#1C1D19"/>
<path d="M120.523 113.829C122.315 115.483 124.344 116.572 125.945 116.965C133.822 110.644 143.382 101.397 151.787 92.4398C155.249 88.754 158.512 85.1148 161.386 81.7506C158.512 78.3863 155.249 74.7472 151.787 71.0614C149.711 68.8486 147.564 66.6183 145.389 64.418C141.79 67.8517 137.992 71.079 134.019 74.0812C136.516 76.6103 139.017 79.1457 141.444 81.6085L141.588 81.7547L141.444 81.901C132.86 90.6005 123.352 100.201 116.471 107.261C117.155 109.928 118.72 112.161 120.525 113.828L120.523 113.829Z" fill="#1C1D19"/>
<path d="M20.2567 26.4633C16.8815 25.0265 14.3158 21.9414 13.3092 18.4277C12.4654 19.8178 11.9792 21.4496 11.9792 23.1956C11.9792 25.7361 13.0076 28.0329 14.6703 29.6979C16.3341 31.3629 18.6302 32.3909 21.1679 32.3909C23.7066 32.3909 26.0017 31.3618 27.6655 29.6979C28.5902 28.7725 29.3179 27.6522 29.7823 26.4031C26.773 27.6532 23.2629 27.7434 20.2557 26.4633H20.2567Z" fill="#65BA94"/>
<path d="M56.3407 26.6257C57.1369 25.829 57.7879 24.8861 58.2502 23.8414C55.3528 24.9089 52.0522 24.9307 49.2067 23.7169C45.6624 22.2086 43.0066 18.8703 42.1203 15.1367C41.1925 16.5735 40.6534 18.2841 40.6534 20.1224C40.6534 22.6629 41.6818 24.9597 43.3445 26.6247C45.0083 28.2887 47.3044 29.3178 49.8421 29.3178C52.3808 29.3178 54.6759 28.2887 56.3397 26.6247L56.3407 26.6257Z" fill="#ED694A"/>
<path d="M85.0138 26.096C86.6766 24.431 87.7049 22.1332 87.7049 19.5937C87.7049 19.5833 87.7049 19.5719 87.7049 19.5615C84.2747 22.3376 79.273 23.126 75.1938 21.3884C72.9651 20.4392 71.0888 18.7669 69.7816 16.7295C69.4862 17.631 69.3265 18.5937 69.3265 19.5947C69.3265 22.1353 70.3549 24.4321 72.0176 26.0971C73.6814 27.7621 75.9775 28.7901 78.5152 28.7901C81.0529 28.7901 83.349 27.761 85.0128 26.0971L85.0138 26.096Z" fill="#F7C334"/>
</g>
<defs>
<clipPath id="clip0_1042_5922">
<rect width="183" height="137" fill="white"/>
</clipPath>
</defs>
</svg>
