<svg width="203" height="203" viewBox="0 0 203 203" fill="none" xmlns="http://www.w3.org/2000/svg">
<rect width="202.5" height="202.5" rx="39.6196" fill="#F8FEE6"/>
<path d="M162.893 108.418C156.134 90.9008 148.546 80.9185 126.173 67.8478L114.876 74.37M162.893 108.418C161.45 122.346 159.413 130.148 153.36 143.997L157.758 148.395H150.311C155.057 117.705 134.779 118.689 130.476 119.972C126.174 121.256 123.448 124.539 121.552 127.419C114.281 138.46 105.375 149.758 101.281 154.07C101.278 150.968 101.273 147.641 101.266 143.997C101.248 133.647 101.246 120.153 101.249 108.418M162.893 108.418C147.241 91.557 138.567 81.9877 114.876 74.37M162.893 108.418H131.823M114.876 74.37L108.071 78.2985M108.071 78.2985L101.266 82.227C101.266 82.227 101.254 93.9931 101.249 108.418M108.071 78.2985C121.333 88.2742 126.628 94.8233 131.823 108.418M131.823 108.418H101.249M101.266 77.8619L120.268 66.8917L115.57 50.9008L111.281 48.4243V58.3473C111.024 64.7666 107.389 67.8348 101.249 67.9188M104.861 154.07C122.284 154.154 130.712 152.932 147.743 148.395C151.081 117.918 132.337 121.868 129.512 123.745C126.687 125.621 126.174 126.392 124.12 129.216C122.065 132.041 108.955 149.758 104.861 154.07Z" stroke="black" stroke-width="6.70033"/>
<path d="M39.6065 108.419C46.3655 90.9014 53.9533 80.919 76.3267 67.8481L87.6236 74.3704M39.6065 108.419C41.0495 122.348 43.0872 130.15 49.1401 143.999L44.7421 148.397H52.1885C47.4432 117.706 67.7207 118.69 72.0231 119.974C76.3254 121.258 79.0512 124.541 80.9474 127.42C88.2186 138.461 97.1243 149.76 101.218 154.072C101.221 150.97 101.226 147.642 101.233 143.999C101.251 133.648 101.253 120.154 101.25 108.419M39.6065 108.419C55.2587 91.5577 63.9329 81.9883 87.6236 74.3704M39.6065 108.419H70.6764M87.6236 74.3704L94.4281 78.299M94.4281 78.299L101.233 82.2275C101.233 82.2275 101.245 93.9938 101.25 108.419M94.4281 78.299C81.1668 88.2748 75.8716 94.824 70.6764 108.419M70.6764 108.419H101.25M101.233 77.8624L82.2315 66.892L86.9291 50.9009L91.2187 48.4243V58.3474C91.4754 64.7668 95.1099 67.8351 101.25 67.9191M97.6381 154.072C80.2152 154.156 71.7877 152.934 54.7563 148.397C51.4184 117.919 70.1626 121.87 72.9874 123.746C75.8121 125.623 76.3258 126.393 78.3798 129.218C80.4339 132.042 93.5442 149.76 97.6381 154.072Z" stroke="black" stroke-width="6.70034"/>
</svg>
